<svg width="679" height="632" viewBox="0 0 679 632" fill="none" xmlns="http://www.w3.org/2000/svg">
<path d="M438.965 125.213C438.916 119.284 437.728 119.935 436.257 120.046C434.786 120.156 433.589 119.685 433.638 125.613C433.687 131.541 434.918 136.258 436.389 136.147C437.86 136.037 439.013 131.141 438.965 125.213Z" fill="#250202"/>
<path d="M430.087 125.87C430.087 125.87 431.939 135.137 436.389 136.147C440.839 137.156 444.291 124.803 444.291 124.803" stroke="black" stroke-linecap="round" stroke-linejoin="round"/>
<path d="M430.087 125.87C430.087 125.87 433.582 118.804 438.035 120.171C442.488 121.537 444.291 124.803 444.291 124.803" stroke="black" stroke-linecap="round" stroke-linejoin="round"/>
<path d="M430.621 123.982C430.621 123.982 429.383 124.806 428.636 122.887C427.888 120.968 427.802 119.415 427.802 119.415" stroke="black" stroke-width="0.5" stroke-linecap="round" stroke-linejoin="round"/>
<path d="M428.111 125.495C428.111 125.495 426.904 128.081 425.676 127.55C424.448 127.018 424.032 125.802 424.032 125.802" stroke="black" stroke-width="0.5" stroke-linecap="round" stroke-linejoin="round"/>
<path d="M431.378 122.899C431.378 122.899 430.175 125.496 429.081 124.951C427.987 124.407 427.658 123.179 427.658 123.179" stroke="black" stroke-width="0.5" stroke-linecap="round" stroke-linejoin="round"/>
<path d="M430.369 123.662C430.369 123.662 429.036 127.045 427.878 126.311C426.72 125.577 426.392 123.961 426.392 123.961" stroke="black" stroke-width="0.5" stroke-linecap="round" stroke-linejoin="round"/>
<path d="M432.878 122.851C432.878 122.851 431.641 125.288 430.459 124.79C429.277 124.293 428.901 123.149 428.901 123.149" stroke="black" stroke-width="0.5" stroke-linecap="round" stroke-linejoin="round"/>
<path d="M435.206 121.703C435.206 121.703 434.019 123.542 432.477 123.221C430.934 122.899 430.302 122.071 430.302 122.071" stroke="black" stroke-width="0.5" stroke-linecap="round" stroke-linejoin="round"/>
<path d="M437.076 120.485C437.076 120.485 436.171 123.115 434.952 122.566C433.733 122.017 433.222 120.775 433.222 120.775" stroke="black" stroke-width="0.5" stroke-linecap="round" stroke-linejoin="round"/>
<path d="M436.085 120.722C436.085 120.722 434.843 123.242 433.784 121.219C432.724 119.196 432.431 117.007 432.431 117.007" stroke="black" stroke-width="0.5" stroke-linecap="round" stroke-linejoin="round"/>
<path d="M438.783 121.246C438.783 121.246 437.799 124.268 436.359 123.64C434.918 123.011 434.286 121.584 434.286 121.584" stroke="black" stroke-width="0.4" stroke-linecap="round" stroke-linejoin="round"/>
<path d="M441.754 121.915C441.754 121.915 441.296 124.066 440.476 124.099C439.656 124.133 439.41 121.464 439.41 121.464" stroke="black" stroke-width="0.4" stroke-linecap="round" stroke-linejoin="round"/>
<path d="M436.278 120.525C436.278 120.525 435.041 122.963 433.859 122.465C432.677 121.968 432.301 120.824 432.301 120.824" stroke="black" stroke-width="0.5" stroke-linecap="round" stroke-linejoin="round"/>
<path d="M439.136 121.022C439.136 121.022 437.949 122.862 436.407 122.54C434.865 122.218 434.246 118.894 434.246 118.894" stroke="black" stroke-width="0.4" stroke-linecap="round" stroke-linejoin="round"/>
<path d="M440.844 120.524C440.844 120.524 439.939 123.154 438.72 122.605C437.501 122.056 436.99 120.814 436.99 120.814" stroke="black" stroke-width="0.4" stroke-linecap="round" stroke-linejoin="round"/>
<path d="M440.009 120.052C440.009 120.052 439.15 123.485 438.643 121.886C438.135 120.286 438.083 118.076 438.083 118.076" stroke="black" stroke-width="0.4" stroke-linecap="round" stroke-linejoin="round"/>
<path d="M439.632 119.583C439.632 119.583 438.324 122.901 437.293 120.691C436.263 118.481 436.012 115.902 436.012 115.902" stroke="black" stroke-width="0.4" stroke-linecap="round" stroke-linejoin="round"/>
<path d="M434.558 119.091C434.558 119.091 433.694 123.672 432.39 122.641C431.087 121.61 431.458 122.323 431.458 122.323" stroke="black" stroke-width="0.4" stroke-linecap="round" stroke-linejoin="round"/>
<path d="M429.508 125.39C429.508 125.39 428.3 127.976 427.073 127.445C425.845 126.913 425.429 125.697 425.429 125.697" stroke="black" stroke-width="0.5" stroke-linecap="round" stroke-linejoin="round"/>
<path d="M397.837 122.023C397.789 116.094 396.601 116.745 395.13 116.856C393.659 116.966 392.462 116.495 392.511 122.423C392.559 128.351 393.791 133.068 395.262 132.957C396.733 132.847 397.886 127.951 397.837 122.023Z" fill="#250202"/>
<path d="M388.959 122.68C388.959 122.68 390.812 131.947 395.262 132.957C399.712 133.966 403.164 121.613 403.164 121.613" stroke="black" stroke-linecap="round" stroke-linejoin="round"/>
<path d="M388.959 122.68C388.959 122.68 392.455 115.614 396.908 116.981C401.361 118.347 403.164 121.613 403.164 121.613" stroke="black" stroke-linecap="round" stroke-linejoin="round"/>
<path d="M389.493 120.792C389.493 120.792 388.256 121.616 387.508 119.697C386.761 117.779 386.675 116.225 386.675 116.225" stroke="black" stroke-width="0.5" stroke-linecap="round" stroke-linejoin="round"/>
<path d="M386.984 122.306C386.984 122.306 385.777 124.892 384.549 124.36C383.321 123.828 382.905 122.612 382.905 122.612" stroke="black" stroke-width="0.5" stroke-linecap="round" stroke-linejoin="round"/>
<path d="M390.251 119.709C390.251 119.709 389.048 122.306 387.954 121.761C386.86 121.217 386.531 119.989 386.531 119.989" stroke="black" stroke-width="0.5" stroke-linecap="round" stroke-linejoin="round"/>
<path d="M389.242 120.472C389.242 120.472 387.909 123.855 386.751 123.121C385.593 122.388 385.265 120.771 385.265 120.771" stroke="black" stroke-width="0.5" stroke-linecap="round" stroke-linejoin="round"/>
<path d="M391.75 119.661C391.75 119.661 390.514 122.098 389.332 121.6C388.15 121.103 387.774 119.959 387.774 119.959" stroke="black" stroke-width="0.5" stroke-linecap="round" stroke-linejoin="round"/>
<path d="M394.079 118.513C394.079 118.513 392.891 120.353 391.349 120.031C389.807 119.709 389.175 118.881 389.175 118.881" stroke="black" stroke-width="0.5" stroke-linecap="round" stroke-linejoin="round"/>
<path d="M395.949 117.295C395.949 117.295 395.044 119.925 393.825 119.376C392.606 118.827 392.095 117.585 392.095 117.585" stroke="black" stroke-width="0.5" stroke-linecap="round" stroke-linejoin="round"/>
<path d="M394.958 117.533C394.958 117.533 393.716 120.052 392.657 118.029C391.597 116.006 391.304 113.817 391.304 113.817" stroke="black" stroke-width="0.5" stroke-linecap="round" stroke-linejoin="round"/>
<path d="M397.656 118.056C397.656 118.056 396.672 121.078 395.231 120.45C393.791 119.821 393.159 118.394 393.159 118.394" stroke="black" stroke-width="0.4" stroke-linecap="round" stroke-linejoin="round"/>
<path d="M400.627 118.725C400.627 118.725 400.169 120.876 399.349 120.909C398.529 120.943 398.283 118.274 398.283 118.274" stroke="black" stroke-width="0.4" stroke-linecap="round" stroke-linejoin="round"/>
<path d="M395.15 117.335C395.15 117.335 393.914 119.773 392.732 119.275C391.55 118.778 391.174 117.634 391.174 117.634" stroke="black" stroke-width="0.5" stroke-linecap="round" stroke-linejoin="round"/>
<path d="M398.009 117.832C398.009 117.832 396.822 119.672 395.28 119.35C393.738 119.028 393.119 115.704 393.119 115.704" stroke="black" stroke-width="0.4" stroke-linecap="round" stroke-linejoin="round"/>
<path d="M399.717 117.334C399.717 117.334 398.812 119.964 397.593 119.415C396.374 118.866 395.863 117.624 395.863 117.624" stroke="black" stroke-width="0.4" stroke-linecap="round" stroke-linejoin="round"/>
<path d="M398.882 116.862C398.882 116.862 398.023 120.295 397.515 118.696C397.008 117.096 396.956 114.886 396.956 114.886" stroke="black" stroke-width="0.4" stroke-linecap="round" stroke-linejoin="round"/>
<path d="M398.505 116.393C398.505 116.393 397.197 119.712 396.166 117.501C395.136 115.291 394.885 112.712 394.885 112.712" stroke="black" stroke-width="0.4" stroke-linecap="round" stroke-linejoin="round"/>
<path d="M393.43 115.901C393.43 115.901 392.566 120.483 391.263 119.451C389.959 118.42 390.33 119.133 390.33 119.133" stroke="black" stroke-width="0.4" stroke-linecap="round" stroke-linejoin="round"/>
<path d="M388.381 122.201C388.381 122.201 387.173 124.786 385.945 124.255C384.718 123.723 384.302 122.507 384.302 122.507" stroke="black" stroke-width="0.5" stroke-linecap="round" stroke-linejoin="round"/>
<path d="M465.02 126.9C465.02 146.693 445.939 163 419.442 163C392.945 163 382.02 146.693 382.02 126.9C382.02 107.107 392.945 101 419.442 101C445.939 101 465.02 107.107 465.02 126.9Z" stroke="black" stroke-width="2" stroke-linecap="round" stroke-linejoin="round"/>
<path d="M451.645 127.281C450.353 137.138 441.797 144.272 432.534 143.215C423.272 142.159 416.811 133.312 418.103 123.455C419.395 113.598 428.474 112.864 437.737 113.92C446.999 114.977 452.938 117.424 451.645 127.281Z" stroke="#3742FA" stroke-width="2" stroke-linecap="round" stroke-linejoin="round"/>
<path d="M409.902 125.427C408.61 135.284 400.054 142.418 390.791 141.361C381.529 140.304 375.067 131.457 376.36 121.601C377.652 111.744 386.731 111.01 395.993 112.066C405.256 113.123 411.194 115.57 409.902 125.427Z" stroke="#3742FA" stroke-width="2" stroke-linecap="round" stroke-linejoin="round"/>
<line x1="410.8" y1="121.052" x2="417.745" y2="121.052" stroke="#3742FA" stroke-width="2" stroke-linecap="round" stroke-linejoin="round"/>
<path d="M399.861 113.708L428.684 114.636" stroke="#3742FA" stroke-width="2" stroke-linecap="round" stroke-linejoin="round"/>
<path d="M417.02 117C416.292 121.808 412.99 126.828 411.501 131.421C410.983 132.31 408.387 137.028 409.164 142.176C410.982 143.437 413.251 142.876 414.301 142.876" stroke="black" stroke-width="2" stroke-linecap="round" stroke-linejoin="round"/>
<path d="M383.487 125.355C374.775 66.7414 491.012 92.0421 466.658 135" stroke="black" stroke-width="2" stroke-linecap="round" stroke-linejoin="round"/>
<path fill-rule="evenodd" clip-rule="evenodd" d="M462.512 102.927C462.876 103.693 463.152 103.947 463.246 104.019C463.301 104.008 463.4 103.98 463.553 103.911C463.921 103.744 464.417 103.419 465.059 102.875C466.097 101.997 467.189 100.844 468.438 99.5251L468.438 99.5251C468.771 99.1726 469.116 98.8082 469.474 98.4341C471.078 96.7586 472.93 94.9096 474.897 93.6375C476.866 92.3636 479.385 91.3922 482.111 92.2544C484.759 93.0919 486.847 95.4314 488.583 98.8734C492.052 105.752 495.085 118.996 497.54 142.369C508.023 242.191 539.431 290.389 568.518 314.753C583.087 326.956 597.189 333.281 608.05 337.095C612.052 338.5 615.575 339.553 618.581 340.451C619.683 340.781 620.716 341.089 621.677 341.387C623.432 341.93 625.003 342.453 626.253 343.004C627.196 343.419 628.272 343.977 629.071 344.805C635.248 348.023 640.898 353.908 646.125 360.79C651.513 367.884 656.647 376.306 661.573 384.553C664.062 388.72 667.073 391.107 670.07 393.209C670.058 393.201 670.113 393.241 670.304 393.31C670.493 393.378 670.737 393.447 671.076 393.532C671.123 393.543 671.172 393.555 671.223 393.568C670.512 392.244 669.679 390.76 668.748 389.15C665.666 383.821 661.576 377.23 657.423 370.738C653.273 364.251 649.074 357.886 645.784 353.016C644.138 350.58 642.724 348.525 641.66 347.021C641.127 346.267 640.69 345.662 640.359 345.22C640.082 344.85 639.935 344.671 639.886 344.61L639.885 344.61C639.868 344.588 639.863 344.582 639.869 344.589C639.513 344.237 639.271 343.787 639.174 343.297C614.979 221.238 591.675 145.927 570.367 101.432C559.711 79.1812 549.627 64.7943 540.311 56.1171C531.035 47.4773 522.645 44.6019 515.206 45.0437C507.694 45.4899 500.661 49.3466 494.214 55.1533C487.775 60.9529 482.11 68.5306 477.365 76.0292C472.629 83.5147 468.873 90.8177 466.209 96.0369L465.945 96.5537L465.945 96.5538C464.75 98.896 463.75 100.856 463.008 102.122C462.86 102.377 462.693 102.654 462.512 102.927ZM678.589 399.841C678.598 399.887 678.608 399.933 678.616 399.98C678.874 401.337 677.984 402.645 676.627 402.903C675.271 403.161 673.962 402.27 673.704 400.914C673.565 400.179 673.313 399.814 673.097 399.596C672.853 399.35 672.493 399.134 671.926 398.933C671.461 398.768 671.011 398.66 670.454 398.526C670.272 398.482 670.077 398.436 669.868 398.383C669.176 398.211 668.094 397.931 667.198 397.302C663.988 395.05 660.303 392.178 657.28 387.117C652.344 378.852 647.341 370.657 642.143 363.814C636.916 356.932 631.683 351.681 626.381 349.046C626.004 348.859 625.681 348.58 625.441 348.235C625.447 348.243 625.45 348.247 625.449 348.248C625.448 348.248 625.443 348.244 625.431 348.235C625.361 348.179 625.062 347.942 624.238 347.58C623.273 347.155 621.942 346.703 620.199 346.163C619.307 345.887 618.319 345.592 617.247 345.272L617.246 345.271C614.218 344.366 610.517 343.26 606.393 341.812C595.148 337.863 580.465 331.282 565.308 318.586C534.945 293.154 503.142 243.588 492.567 142.891C490.109 119.486 487.128 107.093 484.119 101.125C482.615 98.1434 481.347 97.2569 480.604 97.0217C479.938 96.8111 479.028 96.9202 477.612 97.8359C476.193 98.7535 474.702 100.203 473.086 101.892C472.789 102.202 472.486 102.523 472.178 102.848L472.178 102.849L472.178 102.849C470.907 104.192 469.561 105.616 468.289 106.692C467.484 107.374 466.583 108.028 465.614 108.466C464.633 108.91 463.421 109.203 462.116 108.904C459.495 108.303 458.07 105.77 457.165 102.923C457.131 102.824 457.11 102.745 457.098 102.697C457.029 102.427 457.007 102.155 457.027 101.89C457.052 101.561 457.142 101.245 457.287 100.958C457.556 100.423 458.015 99.9879 458.598 99.7572C458.628 99.707 458.66 99.6532 458.694 99.5954C459.359 98.46 460.296 96.6238 461.543 94.1804L461.756 93.7636C464.423 88.5379 468.269 81.0537 473.14 73.3557C478.002 65.6707 483.95 57.6687 490.868 51.4381C497.777 45.2147 505.843 40.591 514.91 40.0525C524.051 39.5096 533.72 43.1453 543.719 52.4583C553.678 61.7339 564.086 76.7416 574.876 99.2728C596.422 144.265 619.779 219.885 643.953 341.689C644.09 341.863 644.228 342.045 644.36 342.222C644.731 342.716 645.198 343.363 645.743 344.134C646.835 345.679 648.27 347.765 649.927 350.217C653.241 355.122 657.462 361.522 661.635 368.044C665.805 374.562 669.941 381.224 673.077 386.647C674.643 389.355 675.977 391.785 676.945 393.748C677.429 394.727 677.836 395.622 678.139 396.397C678.42 397.116 678.688 397.925 678.759 398.663C678.799 399.078 678.736 399.479 678.589 399.841ZM463.191 104.025C463.191 104.025 463.194 104.025 463.199 104.025C463.194 104.025 463.191 104.025 463.191 104.025Z" fill="url(#paint0_radial)"/>
<path d="M378.787 198.495C361.1 177.801 399.468 173.304 409.839 173.304C415.871 173.304 421.681 171.464 427.567 170.447C436.475 168.907 445.424 167.439 454.253 165.521C486.357 144.144 422.939 251.93 454.253 257.223C463.004 251.288 495.401 201.851 505.479 198.495C546.453 184.852 594.793 206.792 625.434 233.574C634.243 241.273 642.92 248.884 651.141 257.223C699.776 301.028 627.126 22.3701 634.158 33.3145C629.417 27.9112 513.846 247.506 508.867 366.22C481.407 469.687 508.656 501.807 508.867 505.597C509.049 508.876 473.972 511.881 470.287 512.327C443.536 515.566 307.279 506.245 280.646 502.889C279.488 497.103 377.593 411.582 378.787 406C426.094 92.9692 43.2118 61.4009 30.0336 55.9327C27.8637 37.3732 284.5 51.7167 338.288 164.327C382.779 265.387 440.108 293.78 378.787 198.495Z" stroke="url(#paint1_radial)" stroke-width="5" stroke-linecap="round" stroke-linejoin="round"/>
<path d="M347.626 615C185.284 481.592 297.444 456.309 501.464 504.821C581.047 521.196 340.948 544.129 590.02 614.311C583.303 612.236 501.464 551.835 501.464 551.835C493.229 547.95 528.694 536.015 436.089 536.015C278.371 505.73 347.626 610.98 347.626 615Z" stroke="black" stroke-width="5" stroke-linecap="round" stroke-linejoin="round"/>
<path d="M348.049 614.437C347.873 614.3 347.63 614.03 347.385 614.03C346.979 614.03 346.568 614.1 346.164 614.132C343.312 614.355 340.453 614.453 337.601 614.691C333.961 614.995 330.304 615.25 326.686 615.762C323.767 616.176 320.866 616.757 318.007 617.477C317.385 617.634 316.618 617.705 316.184 618.246C315.463 619.145 316.282 620.17 317.125 620.602C318.691 621.403 320.726 621.325 322.423 621.15C323.149 621.075 323.829 621.006 324.553 621.048C324.723 621.058 324.265 621.234 324.11 621.303C323.141 621.731 322.175 622.161 321.233 622.648C320.42 623.068 319.384 623.515 318.857 624.315C318.513 624.838 318.56 625.568 319.239 625.815C319.964 626.079 320.96 625.85 321.68 625.691C322.649 625.476 323.591 625.153 324.533 624.846C325.073 624.67 325.76 624.377 326.344 624.377C326.535 624.377 326.442 624.457 326.316 624.524C325.661 624.871 324.967 625.14 324.31 625.484C323.649 625.831 322.953 626.26 322.42 626.792C322.148 627.065 322.585 627.134 322.821 627.171C323.914 627.34 325.213 626.77 326.203 626.377C327.446 625.884 328.656 625.22 329.774 624.487C330.083 624.285 330.382 624.068 330.684 623.857C330.842 623.747 331.113 623.511 330.888 623.874C330.17 625.03 329.097 626.005 328.684 627.332C328.608 627.576 328.628 627.943 328.935 628.033C329.176 628.103 329.544 627.877 329.735 627.761C330.399 627.359 330.954 626.69 331.436 626.095C331.831 625.606 332.204 625.105 332.617 624.631C332.714 624.519 332.8 624.401 332.894 624.286C332.92 624.254 332.978 624.161 332.987 624.202C333.009 624.299 332.937 624.533 332.922 624.614C332.861 624.925 332.787 625.234 332.718 625.544C332.603 626.065 332.473 626.599 332.441 627.134C332.408 627.699 332.486 628.218 332.741 628.728C332.845 628.936 333.068 629.282 333.334 629.282C334.116 629.282 334.966 628.467 335.465 627.954C336.46 626.928 337.397 625.807 338.262 624.671C338.713 624.076 339.193 623.516 339.683 622.953C340.347 622.189 340.949 621.379 341.59 620.596C342.526 619.454 343.437 618.328 344.127 617.022C344.33 616.639 344.576 616.291 344.822 615.935C345.129 615.489 345.356 615.013 345.63 614.55C345.869 614.146 346.271 613.768 346.421 613.318" stroke="black" stroke-linecap="round" stroke-linejoin="round"/>
<path d="M590.161 616.119C589.986 615.982 589.743 615.712 589.497 615.712C589.092 615.712 588.68 615.782 588.277 615.814C585.425 616.037 582.566 616.135 579.713 616.373C576.074 616.677 572.416 616.931 568.799 617.444C565.88 617.858 562.979 618.439 560.12 619.159C559.498 619.315 558.731 619.386 558.297 619.927C557.576 620.827 558.394 621.852 559.238 622.284C560.803 623.085 562.838 623.007 564.536 622.832C565.261 622.757 565.942 622.688 566.666 622.73C566.836 622.74 566.378 622.916 566.222 622.984C565.254 623.412 564.288 623.843 563.346 624.329C562.533 624.749 561.497 625.196 560.97 625.996C560.626 626.519 560.673 627.25 561.351 627.496C562.077 627.76 563.073 627.532 563.793 627.372C564.762 627.157 565.704 626.834 566.646 626.527C567.186 626.351 567.873 626.058 568.457 626.058C568.647 626.058 568.554 626.139 568.429 626.205C567.774 626.552 567.08 626.821 566.423 627.166C565.761 627.513 565.066 627.941 564.533 628.474C564.261 628.746 564.698 628.816 564.934 628.853C566.026 629.022 567.326 628.452 568.316 628.059C569.559 627.565 570.769 626.901 571.887 626.169C572.195 625.966 572.494 625.749 572.797 625.539C572.955 625.429 573.225 625.193 573 625.555C572.283 626.712 571.21 627.686 570.797 629.014C570.721 629.258 570.74 629.625 571.048 629.714C571.289 629.785 571.657 629.559 571.848 629.443C572.512 629.04 573.067 628.371 573.548 627.776C573.944 627.288 574.316 626.787 574.729 626.313C574.827 626.201 574.913 626.083 575.006 625.968C575.033 625.935 575.09 625.842 575.1 625.883C575.121 625.981 575.05 626.215 575.035 626.296C574.974 626.607 574.9 626.916 574.831 627.225C574.716 627.747 574.586 628.281 574.554 628.816C574.521 629.381 574.599 629.9 574.854 630.409C574.958 630.617 575.18 630.963 575.447 630.963C576.228 630.963 577.079 630.149 577.577 629.635C578.573 628.61 579.51 627.489 580.374 626.352C580.826 625.758 581.306 625.197 581.796 624.634C582.46 623.871 583.062 623.06 583.703 622.278C584.639 621.136 585.549 620.01 586.24 618.704C586.443 618.32 586.689 617.973 586.935 617.616C587.242 617.171 587.469 616.695 587.743 616.232C587.982 615.828 588.384 615.449 588.534 615" stroke="black" stroke-linecap="round" stroke-linejoin="round"/>
<path d="M29.1168 49.4024C26.3998 47.0691 23.5522 44.8857 20.7521 42.6538C19.1765 41.398 17.6206 40.1178 16.046 38.8605C15.095 38.1011 14.1457 37.1279 13.0234 36.6235C11.9734 36.1516 9.46081 36.2761 10.2102 38.0301C10.8444 39.5142 12.6993 40.1792 14.0185 40.9031C14.0571 40.9243 15.056 41.4143 14.9612 41.5091C14.8365 41.6337 14.2136 41.4701 14.0858 41.4567C12.8095 41.3236 11.5292 41.3221 10.2476 41.3221C8.69131 41.3221 7.1123 41.2188 5.56401 41.3221C5.24917 41.3431 5.20718 41.7836 5.22732 42.0254C5.29438 42.8301 5.70042 43.6387 6.24485 44.225C7.54829 45.6287 9.75485 45.6803 11.5121 45.8486C11.6084 45.8578 12.0574 45.8403 12.133 45.9159C12.3082 46.0911 11.6657 46.0867 11.4223 46.1329C9.35202 46.5257 7.22864 46.8682 5.25725 47.6367C4.88788 47.7807 4.4407 47.9624 4.14994 48.2428C3.96346 48.4226 4.33785 48.5918 4.47914 48.6617C5.35891 49.0973 6.55826 48.9003 7.48684 48.7665C8.26367 48.6546 9.04538 48.5143 9.81368 48.355C9.89286 48.3386 10.3215 48.2474 10.1204 48.4522C9.78947 48.7895 9.28895 48.9702 8.87097 49.163C8.0987 49.5192 7.3245 49.8723 6.54413 50.2105C5.15973 50.8104 3.79134 51.418 2.42912 52.066C2.01364 52.2636 1.61666 52.4173 1.25447 52.7019C1.06788 52.8485 0.997092 53.291 1.00009 53.51C1.01008 54.2389 1.82837 54.4374 2.42164 54.3928C5.32415 54.1745 7.88942 52.3286 10.4047 51.0484C10.7165 50.8898 11.0312 50.7165 11.34 50.5621C12.0942 50.185 9.94523 51.5103 9.25255 51.9911C8.13632 52.766 7.14832 53.6495 6.22241 54.6397C5.69957 55.1989 5.18616 55.7787 4.86071 56.4802C4.73985 56.7408 4.53081 57.1111 4.6213 57.4155C4.73765 57.8069 5.43567 57.6944 5.71364 57.6399C7.29037 57.3312 8.78082 56.1651 10.0082 55.1784C10.7126 54.6121 11.4294 54.0388 12.148 53.495C12.2786 53.3962 12.4036 53.3216 12.552 53.2556C12.8087 53.1415 12.5386 53.5737 12.5146 53.6297C12.3004 54.1296 12.0933 54.7315 11.961 55.2607C11.8514 55.6989 11.8582 56.7851 12.0807 57.1312C12.3053 57.4806 12.925 57.0294 13.1431 56.9142C13.8989 56.515 14.6972 55.9964 15.2305 55.3131C15.5473 54.9072 15.7053 54.402 16.0012 53.9813C16.2995 53.5571 16.6914 53.2123 17.1159 52.9189C18.3677 52.0537 20.1436 51.8688 21.5976 51.5572C22.9448 51.2685 24.3931 50.8896 25.6677 50.3601C26.0726 50.1919 26.4585 50.0197 26.8423 49.8065C27.1516 49.6346 27.5098 49.514 27.7701 49.2678C27.9206 49.1254 27.9658 49.0658 28.1741 49.0658" stroke="black" stroke-linecap="round" stroke-linejoin="round"/>
<path d="M631.276 29.614C634.634 28.3685 637.924 26.936 641.233 25.5685C643.095 24.799 644.969 24.0585 646.832 23.2907C647.957 22.8269 649.268 22.4683 650.254 21.7311C651.175 21.0414 652.284 18.7833 650.387 18.5887C648.781 18.424 647.3 19.7242 646.028 20.5272C645.991 20.5507 645.078 21.187 645.041 21.058C644.992 20.8886 645.437 20.4231 645.511 20.3178C646.246 19.2659 646.868 18.1468 647.489 17.0258C648.243 15.6645 649.099 14.3334 649.759 12.9291C649.893 12.6435 649.528 12.3933 649.307 12.2937C648.571 11.9624 647.667 11.9256 646.89 12.1176C645.03 12.5774 643.916 14.4824 642.917 15.9379C642.862 16.0177 642.66 16.4189 642.557 16.4484C642.319 16.5167 642.634 15.9568 642.712 15.7215C643.372 13.7203 644.101 11.697 644.384 9.60017C644.438 9.20729 644.495 8.7281 644.391 8.33788C644.324 8.08762 643.995 8.33307 643.865 8.42276C643.058 8.98119 642.649 10.1257 642.316 11.0028C642.037 11.7365 641.781 12.4883 641.548 13.2375C641.524 13.3147 641.396 13.7338 641.314 13.4587C641.179 13.0057 641.264 12.4803 641.298 12.0213C641.361 11.1731 641.427 10.3248 641.509 9.47833C641.656 7.97665 641.788 6.48523 641.881 4.97965C641.909 4.52044 641.967 4.0987 641.894 3.64396C641.856 3.40969 641.504 3.13331 641.311 3.02981C640.668 2.68525 640.098 3.30476 639.849 3.84532C638.634 6.48994 639.005 9.62844 638.905 12.449C638.893 12.7986 638.892 13.1579 638.877 13.5028C638.842 14.3453 638.724 11.8232 638.639 10.9843C638.502 9.63236 638.209 8.33996 637.791 7.05014C637.556 6.32181 637.297 5.59168 636.841 4.96701C636.672 4.73502 636.449 4.37267 636.139 4.3043C635.741 4.21638 635.501 4.88146 635.414 5.15098C634.919 6.67976 635.217 8.54862 635.485 10.1004C635.639 10.9911 635.793 11.8958 635.92 12.788C635.944 12.9501 635.948 13.0956 635.934 13.2575C635.909 13.5373 635.662 13.0915 635.625 13.0434C635.292 12.6137 634.865 12.1408 634.467 11.7686C634.136 11.4604 633.183 10.9399 632.773 10.9667C632.358 10.9939 632.452 11.7546 632.447 12.0012C632.43 12.8558 632.497 13.8054 632.836 14.6031C633.038 15.0769 633.403 15.4599 633.628 15.9226C633.854 16.3892 633.966 16.8991 634.016 17.4127C634.167 18.9269 633.468 20.5699 633.035 21.9927C632.635 23.311 632.264 24.7615 632.11 26.133C632.061 26.5687 632.024 26.9896 632.025 27.4288C632.025 27.7825 631.957 28.1543 632.046 28.5014C632.098 28.702 632.128 28.7705 632.027 28.9527" stroke="black" stroke-linecap="round" stroke-linejoin="round"/>
<rect x="452.5" y="155.231" width="9.15385" height="11.2687" rx="4.57692" stroke="black"/>
<ellipse cx="457.231" cy="157.891" rx="1.84615" ry="0.929448" fill="black"/>
<path d="M460.835 155.458C461.059 155.099 461.295 154.635 461.6 154.359C461.924 154.065 462.237 153.824 462.553 153.508C463.394 152.667 464.43 151.991 465.52 151.803C466.55 151.625 467.618 151.774 468.631 151.96C469.867 152.187 471.082 151.859 472.298 151.681C472.652 151.629 473.036 151.41 473.37 151.262C473.875 151.039 474.138 150.642 474.529 150.233C474.938 149.804 475.264 149.161 475.749 148.859C476.138 148.616 476.497 148.295 476.897 148.14C477.25 148.002 477.548 148 477.922 148" stroke="black" stroke-linecap="round" stroke-linejoin="round"/>
<path d="M461.538 165.163C461.762 164.804 461.999 164.34 462.304 164.064C462.627 163.771 462.941 163.529 463.257 163.214C464.098 162.372 465.134 161.697 466.223 161.508C467.254 161.331 468.321 161.479 469.335 161.665C470.571 161.893 471.786 161.564 473.002 161.386C473.355 161.335 473.74 161.116 474.074 160.968C474.579 160.744 474.842 160.347 475.232 159.938C475.642 159.51 475.968 158.867 476.452 158.565C476.842 158.322 477.2 158 477.6 157.845C477.954 157.708 477.626 148.039 478 148.039" stroke="black" stroke-linecap="round" stroke-linejoin="round"/>
<rect x="390.531" y="166.88" width="9.15385" height="11.2687" rx="4.57692" transform="rotate(-179.75 390.531 166.88)" stroke="black"/>
<ellipse cx="385.812" cy="164.199" rx="1.84615" ry="0.929448" transform="rotate(-179.75 385.812 164.199)" fill="black"/>
<path d="M382.197 166.617C381.972 166.975 381.734 167.438 381.427 167.713C381.103 168.005 380.788 168.245 380.471 168.559C379.626 169.397 378.587 170.068 377.497 170.251C376.465 170.425 375.398 170.272 374.386 170.081C373.151 169.848 371.934 170.171 370.718 170.344C370.364 170.394 369.978 170.611 369.644 170.758C369.138 170.979 368.873 171.375 368.481 171.782C368.07 172.209 367.741 172.85 367.255 173.151C366.864 173.392 366.504 173.712 366.104 173.865C365.75 174.001 365.452 174.002 365.078 174" stroke="black" stroke-linecap="round" stroke-linejoin="round"/>
<path d="M381.536 156.909C381.311 157.267 381.072 157.729 380.766 158.004C380.441 158.296 380.127 158.536 379.81 158.851C378.965 159.688 377.926 160.36 376.835 160.543C375.804 160.716 374.737 160.563 373.725 160.372C372.49 160.14 371.273 160.463 370.056 160.635C369.703 160.686 369.317 160.903 368.983 161.049C368.477 161.271 368.212 161.666 367.82 162.074C367.408 162.5 367.08 163.142 366.594 163.442C366.203 163.683 365.843 164.003 365.443 164.157C365.089 164.292 365.374 173.962 365 173.961" stroke="black" stroke-linecap="round" stroke-linejoin="round"/>
<path d="M455.358 127.385C456.471 126.639 457.931 125.921 458.849 124.908C459.086 124.647 459.144 124.477 459.506 124.371C460.01 124.222 460.68 124.279 461.132 124.027C462.552 123.239 462.072 124.754 462.072 126.012C462.072 127.609 462.216 129.274 462.057 130.861C461.857 132.869 460.052 134.567 459.386 136.397C458.642 138.443 458.37 140.277 455.895 140.277C454.695 140.277 455.141 139.382 455.089 138.397C455.037 137.406 454.521 136.635 453.746 136.248" stroke="black" stroke-linecap="round" stroke-linejoin="round"/>
<line x1="457.5" y1="136" x2="457.5" y2="158" stroke="black"/>
<line x1="385.5" y1="143" x2="385.5" y2="156" stroke="black"/>
<defs>
<radialGradient id="paint0_radial" cx="0" cy="0" r="1" gradientUnits="userSpaceOnUse" gradientTransform="translate(474.02 100.5) rotate(58.8514) scale(425.319 259.859)">
<stop/>
<stop offset="1" stop-opacity="0.65"/>
</radialGradient>
<radialGradient id="paint1_radial" cx="0" cy="0" r="1" gradientUnits="userSpaceOnUse" gradientTransform="translate(349.02 273) rotate(90) scale(240 319)">
<stop/>
<stop offset="1" stop-color="#BBBDE3" stop-opacity="0.55"/>
</radialGradient>
</defs>
</svg>
