<svg width="134" height="134" viewBox="0 0 134 134" fill="none" xmlns="http://www.w3.org/2000/svg">
<circle cx="67" cy="67" r="67" fill="url(#paint0_linear)"/>
<path fill-rule="evenodd" clip-rule="evenodd" d="M49.7818 23.1444C44.4381 21.6633 39.9724 21.7141 36.6358 22.7573C33.3007 23.8001 31.0638 25.8498 30.2937 28.3638C29.5208 30.8869 30.2655 33.7452 32.6202 36.3066C34.9698 38.8626 38.9338 41.1453 44.6908 42.608C52.5651 44.6085 56.6041 47.4834 58.1166 50.4602C58.6328 51.4761 58.8643 52.526 58.8443 53.5863C58.8033 55.7531 56.2234 56.4632 54.1231 55.9286V55.9286C49.19 54.673 44.4979 56.591 40.6097 59.2417C37.1828 61.578 34.3064 64.5356 32.3598 66.537L32.3598 66.5371L32.3597 66.5372C32.0964 66.8079 31.8501 67.0612 31.6217 67.293C31.428 67.4898 31.4304 67.8063 31.6271 68.0001C31.6573 68.0298 31.6903 68.0549 31.7252 68.0754C31.76 68.0965 31.798 68.1136 31.8387 68.1259C36.2288 69.4609 41.2514 68.9959 45.7948 67.4512C50.3377 65.9067 54.4609 63.2628 57.0481 60.1665V60.1665C57.6912 59.3969 58.8277 59.1416 59.5593 59.8276C60.834 61.0228 61.6815 62.4374 62.2269 63.9524C63.3673 67.1204 63.2015 70.7743 62.7184 73.8822C62.0845 77.9607 60.5975 81.9508 58.9828 85.9759C58.7553 86.5428 58.5253 87.1107 58.2948 87.6796L58.2947 87.6797C56.8959 91.1324 55.4821 94.6217 54.5507 98.171L54.526 98.2654C54.0775 99.974 53.6476 101.612 53.6476 103.435C53.6476 103.585 53.6592 103.737 53.6981 103.872C53.7338 103.997 53.8222 104.208 54.0514 104.318C54.2929 104.434 54.5181 104.358 54.6368 104.297C54.7596 104.234 54.8653 104.142 54.9496 104.058C55.2783 103.73 55.6917 103.091 56.1075 102.396C56.4494 101.825 56.8173 101.174 57.173 100.544L57.1732 100.544C57.2611 100.388 57.3483 100.234 57.4341 100.082C57.8724 99.3087 58.2721 98.6173 58.5764 98.1692C61.2863 94.1791 63.9557 90.1901 66.4937 86.1379C70.4767 79.7783 75.6447 73.6723 81.8687 68.2249C83.3384 66.9386 85.3328 65.3238 87.6277 64.1247C89.9238 62.925 92.4818 62.162 95.0928 62.5238C99.8651 63.1851 101.946 66.9452 102.326 69.9594C102.697 72.9002 102.121 75.5773 101.18 78.2943C100.729 79.5968 100.197 80.8993 99.6476 82.2458L99.5732 82.428C98.9989 83.8351 98.4096 85.2888 97.8897 86.8138C96.8481 89.8694 96.0799 93.2248 96.2414 97.1505C96.4028 101.076 97.4925 105.542 100.127 110.827C100.25 111.074 100.55 111.174 100.797 111.051C101.045 110.928 101.145 110.628 101.022 110.381C98.4404 105.202 97.3953 100.873 97.2405 97.1094C97.0857 93.3457 97.8198 90.1181 98.8363 87.1365C99.3454 85.643 99.9241 84.2146 100.499 82.8059L100.577 82.6153L100.577 82.6152C101.124 81.2758 101.665 79.9504 102.125 78.6216C103.091 75.8327 103.716 72.9892 103.318 69.8343C102.901 66.5232 100.585 62.2754 95.23 61.5332C92.3379 61.1325 89.5641 61.9847 87.1646 63.2384C84.764 64.4927 82.699 66.1693 81.2101 67.4724C74.9146 72.9825 69.6824 79.1626 65.6462 85.6071C63.1183 89.6433 60.4572 93.62 57.7491 97.6074C57.4178 98.0952 56.9979 98.8236 56.5641 99.589C56.4776 99.7416 56.3904 99.896 56.3029 100.051L56.2993 100.057C55.9441 100.686 55.5843 101.323 55.2495 101.883V101.883C55.0914 102.147 54.7333 102.024 54.7776 101.72C54.9323 100.657 55.2075 99.6079 55.5073 98.4657L55.518 98.4248C56.4317 94.9429 57.818 91.5204 59.2181 88.0641C59.4493 87.4932 59.681 86.9213 59.9109 86.3482C61.5262 82.3217 63.0535 78.238 63.7066 74.0358C64.1981 70.8734 64.3936 67.0189 63.1678 63.6137V63.6137C61.739 59.6447 60.8759 54.572 59.3036 50.6576C59.2162 50.4401 59.1179 50.2232 59.0081 50.0072C57.2942 46.634 52.8913 43.6596 44.9371 41.6388C39.3006 40.2068 35.5341 37.9989 33.3564 35.6299C31.1836 33.2663 30.6039 30.7654 31.2499 28.6567C31.8986 26.5389 33.8239 24.6842 36.9342 23.7117C40.043 22.7397 44.3062 22.6644 49.5147 24.1081C49.7808 24.1819 50.0564 24.0259 50.1301 23.7598C50.2039 23.4937 50.0479 23.2182 49.7818 23.1444ZM56.2808 59.5253C56.8544 58.8387 56.5974 57.8223 55.7636 57.4978C55.1797 57.2706 54.5517 57.0696 53.8765 56.8977C49.3527 55.7463 44.9657 57.4823 41.173 60.068C37.8362 62.3429 35.0332 65.2237 33.0817 67.2294L33.0812 67.2299V67.2299C33.0126 67.3004 33.0463 67.4184 33.142 67.4408C37.0363 68.3514 41.4211 67.882 45.4729 66.5044C49.8805 65.0059 53.8347 62.4527 56.2808 59.5253V59.5253Z" fill="white"/>
<path d="M36.6358 22.7573L35.1437 17.9851L35.1437 17.9851L36.6358 22.7573ZM49.7818 23.1444L51.1173 18.3261L51.1173 18.3261L49.7818 23.1444ZM30.2937 28.3638L35.0744 29.8283L35.0744 29.8283L30.2937 28.3638ZM32.6202 36.3066L28.9392 39.6905L28.9392 39.6905L32.6202 36.3066ZM44.6908 42.608L43.4596 47.454L43.4596 47.454L44.6908 42.608ZM58.1166 50.4602L62.5742 48.1953L62.5742 48.1953L58.1166 50.4602ZM40.6097 59.2417L43.4262 63.373L40.6097 59.2417ZM32.3598 66.537L28.7755 63.051C28.6719 63.1576 28.573 63.2687 28.4793 63.3841L32.3598 66.537ZM32.3598 66.5371L35.9735 69.9927C36.0665 69.8954 36.1555 69.7944 36.2404 69.69L32.3598 66.5371ZM32.3597 66.5372L35.944 70.0232C35.9539 70.0131 35.9637 70.003 35.9734 69.9928L32.3597 66.5372ZM31.6217 67.293L28.0594 63.7845L28.0594 63.7845L31.6217 67.293ZM31.6271 68.0001L35.1357 64.4378L35.1356 64.4378L31.6271 68.0001ZM31.7252 68.0754L34.3111 63.796C34.2926 63.7849 34.2741 63.7738 34.2554 63.7629L31.7252 68.0754ZM31.8387 68.1259L30.384 72.9096L30.384 72.9097L31.8387 68.1259ZM45.7948 67.4512L47.4042 72.1851L47.4042 72.1851L45.7948 67.4512ZM62.2269 63.9524L66.9313 62.2589L66.9313 62.2589L62.2269 63.9524ZM62.7184 73.8822L67.6591 74.6501L67.6591 74.6501L62.7184 73.8822ZM58.9828 85.9759L63.6233 87.8375L63.6233 87.8375L58.9828 85.9759ZM58.2948 87.6796L53.6607 85.802C53.6211 85.8997 53.5847 85.9985 53.5513 86.0985L58.2948 87.6796ZM58.2947 87.6797L62.9288 89.5572C62.9684 89.4596 63.0048 89.3607 63.0382 89.2608L58.2947 87.6797ZM54.5507 98.171L59.3869 99.4404L59.387 99.4401L54.5507 98.171ZM54.526 98.2654L59.3621 99.5349L59.3622 99.5348L54.526 98.2654ZM53.6981 103.872L58.5041 102.493L58.5041 102.493L53.6981 103.872ZM54.0514 104.318L51.8857 108.825L51.8858 108.825L54.0514 104.318ZM54.6368 104.297L56.9129 108.749L56.9133 108.749L54.6368 104.297ZM54.9496 104.058L51.4157 100.521L51.4157 100.521L54.9496 104.058ZM56.1075 102.396L51.8174 99.8281L51.8174 99.8281L56.1075 102.396ZM57.173 100.544L61.5267 103.003C61.5311 102.995 61.5355 102.987 61.5399 102.979L57.173 100.544ZM57.1732 100.544L52.8196 98.0847C52.8151 98.0925 52.8108 98.1004 52.8064 98.1082L57.1732 100.544ZM57.4341 100.082L53.0841 97.6169L53.084 97.6169L57.4341 100.082ZM58.5764 98.1692L62.7126 100.978L62.7126 100.978L58.5764 98.1692ZM66.4937 86.1379L62.2562 83.4839L62.2562 83.4839L66.4937 86.1379ZM81.8687 68.2249L85.1617 71.9874L85.1617 71.9874L81.8687 68.2249ZM87.6277 64.1247L89.9432 68.5563L89.9432 68.5563L87.6277 64.1247ZM95.0928 62.5238L94.4064 67.4765L94.4064 67.4765L95.0928 62.5238ZM102.326 69.9594L97.3655 70.585L97.3655 70.585L102.326 69.9594ZM101.18 78.2943L96.4557 76.6577L96.4557 76.6577L101.18 78.2943ZM99.6476 82.2458L95.0185 80.3559L95.0184 80.3562L99.6476 82.2458ZM99.5732 82.428L94.944 80.5384L94.9439 80.5387L99.5732 82.428ZM97.8897 86.8138L93.1572 85.2005L93.1572 85.2005L97.8897 86.8138ZM96.2414 97.1505L91.2456 97.3559L91.2456 97.3559L96.2414 97.1505ZM100.127 110.827L95.6521 113.057L95.6521 113.058L100.127 110.827ZM100.797 111.051L103.028 115.526L103.028 115.526L100.797 111.051ZM101.022 110.381L105.497 108.15L105.497 108.15L101.022 110.381ZM97.2405 97.1094L102.236 96.9039L102.236 96.9039L97.2405 97.1094ZM98.8363 87.1365L103.569 88.7499L103.569 88.7499L98.8363 87.1365ZM100.499 82.8059L95.8699 80.9161L95.8697 80.9166L100.499 82.8059ZM100.577 82.6153L96.0078 80.5846C95.9871 80.6312 95.967 80.6782 95.9477 80.7255L100.577 82.6153ZM100.577 82.6152L105.146 84.6459C105.167 84.5992 105.187 84.5523 105.206 84.505L100.577 82.6152ZM102.125 78.6216L97.4006 76.985L97.4006 76.985L102.125 78.6216ZM103.318 69.8343L98.3576 70.4599L98.3576 70.4599L103.318 69.8343ZM95.23 61.5332L94.5437 66.4859L94.5437 66.4859L95.23 61.5332ZM87.1646 63.2384L84.8492 58.8069L84.8492 58.8069L87.1646 63.2384ZM81.2101 67.4724L84.5031 71.2349L84.5031 71.2349L81.2101 67.4724ZM65.6462 85.6071L61.4087 82.9531L61.4087 82.9531L65.6462 85.6071ZM57.7491 97.6074L61.8854 100.417L61.8854 100.417L57.7491 97.6074ZM56.5641 99.589L60.9141 102.054L60.9142 102.054L56.5641 99.589ZM56.3029 100.051L60.6549 102.513L60.6566 102.51L56.3029 100.051ZM56.2993 100.057L51.9473 97.5956L51.9457 97.5984L56.2993 100.057ZM55.5073 98.4657L60.3435 99.7348L60.3435 99.7348L55.5073 98.4657ZM55.518 98.4248L60.3543 99.694L60.3543 99.6939L55.518 98.4248ZM59.2181 88.0641L63.8523 89.9413L63.8523 89.9412L59.2181 88.0641ZM59.9109 86.3482L64.5514 88.2098L64.5514 88.2098L59.9109 86.3482ZM63.7066 74.0358L68.6473 74.8037L68.6473 74.8037L63.7066 74.0358ZM59.0081 50.0072L63.4657 47.7423L63.4657 47.7423L59.0081 50.0072ZM44.9371 41.6388L43.7059 46.4848L43.7059 46.4848L44.9371 41.6388ZM33.3564 35.6299L29.6754 39.0137L29.6754 39.0137L33.3564 35.6299ZM31.2499 28.6567L26.4691 27.1922L31.2499 28.6567ZM36.9342 23.7117L38.4263 28.4839L38.4263 28.4839L36.9342 23.7117ZM49.5147 24.1081L50.8502 19.2898L50.8502 19.2898L49.5147 24.1081ZM50.1301 23.7598L54.9485 25.0953L54.9485 25.0953L50.1301 23.7598ZM53.8765 56.8977L55.1098 52.0522L55.1098 52.0522L53.8765 56.8977ZM41.173 60.068L38.3565 55.9367L38.3565 55.9367L41.173 60.068ZM33.0817 67.2294L29.4981 63.7425L29.4962 63.7445L33.0817 67.2294ZM45.4729 66.5044L47.0823 71.2383L47.0823 71.2383L45.4729 66.5044ZM33.142 67.4408L34.2804 62.5721L33.142 67.4408ZM59.3036 50.6576L54.6639 52.5212L59.3036 50.6576ZM55.7636 57.4978L57.5771 52.8383L55.7636 57.4978ZM54.7776 101.72L59.7255 102.44L54.7776 101.72ZM38.1278 27.5295C40.3252 26.8424 43.7784 26.669 48.4463 27.9628L51.1173 18.3261C45.0977 16.6576 39.6196 16.5857 35.1437 17.9851L38.1278 27.5295ZM35.0744 29.8283C35.2371 29.2973 35.9144 28.2215 38.1278 27.5295L35.1437 17.9851C30.6869 19.3786 26.8906 22.4023 25.513 26.8993L35.0744 29.8283ZM36.3011 32.9228C34.8538 31.3483 34.937 30.277 35.0744 29.8283L25.513 26.8993C24.1047 31.4968 25.6773 36.1421 28.9392 39.6905L36.3011 32.9228ZM45.922 37.7619C40.7677 36.4524 37.7914 34.5439 36.3011 32.9228L28.9392 39.6905C32.1482 43.1812 37.0999 45.8383 43.4596 47.454L45.922 37.7619ZM62.5742 48.1953C60.0547 43.2368 54.1966 39.8642 45.922 37.7619L43.4596 47.454C50.9337 49.3529 53.1534 51.7301 53.659 52.7251L62.5742 48.1953ZM63.8434 53.6807C63.8789 51.8004 63.4609 49.9405 62.5742 48.1953L53.659 52.7251C53.8047 53.0118 53.8497 53.2516 53.8452 53.4918L63.8434 53.6807ZM43.4262 63.373C46.8382 61.0469 50.0042 60.0396 52.8898 60.7741L55.3565 51.0831C48.3759 49.3063 42.1576 52.1351 37.7932 55.1105L43.4262 63.373ZM35.9442 70.0231C37.919 67.9925 40.4719 65.3871 43.4262 63.373L37.7932 55.1105C33.8937 57.769 30.6937 61.0786 28.7755 63.051L35.9442 70.0231ZM36.2404 69.69L36.2404 69.69L28.4793 63.3841L28.4792 63.3841L36.2404 69.69ZM35.9734 69.9928L35.9735 69.9927L28.7461 63.0815L28.746 63.0816L35.9734 69.9928ZM35.184 70.8016C35.4256 70.5564 35.6834 70.2912 35.944 70.0232L28.7754 63.0511C28.5093 63.3246 28.2746 63.566 28.0594 63.7845L35.184 70.8016ZM35.1356 64.4378C36.9063 66.1817 36.928 69.0309 35.1841 70.8016L28.0594 63.7845C25.9279 65.9486 25.9544 69.4309 28.1186 71.5624L35.1356 64.4378ZM34.2554 63.7629C34.5735 63.9495 34.8696 64.1758 35.1357 64.4378L28.1185 71.5624C28.4449 71.8839 28.807 72.1603 29.1949 72.3879L34.2554 63.7629ZM33.2934 63.3422C33.6524 63.4514 33.9941 63.6045 34.3111 63.796L29.1393 72.3548C29.5259 72.5884 29.9436 72.7757 30.384 72.9096L33.2934 63.3422ZM44.1854 62.7173C40.3234 64.0303 36.4091 64.2897 33.2934 63.3422L30.384 72.9097C36.0485 74.6322 42.1794 73.9615 47.4042 72.1851L44.1854 62.7173ZM53.2112 56.9605C51.3299 59.2121 48.0516 61.4029 44.1854 62.7173L47.4042 72.1851C52.6239 70.4105 57.5919 67.3136 60.8851 63.3724L53.2112 56.9605ZM66.9313 62.2589C66.1569 60.1076 64.9083 57.989 62.9792 56.1802L56.1393 63.475C56.7596 64.0566 57.2061 64.7673 57.5224 65.6459L66.9313 62.2589ZM67.6591 74.6501C68.1844 71.2703 68.4988 66.6132 66.9313 62.2589L57.5224 65.6459C58.2358 67.6275 58.2186 70.2783 57.7778 73.1143L67.6591 74.6501ZM63.6233 87.8375C65.2407 83.8056 66.9291 79.3473 67.6591 74.6501L57.7778 73.1143C57.24 76.5741 55.9542 80.096 54.3423 84.1143L63.6233 87.8375ZM62.9289 89.5572C63.1588 88.9896 63.3921 88.4138 63.6233 87.8375L54.3423 84.1142C54.1185 84.6719 53.8917 85.2319 53.6607 85.802L62.9289 89.5572ZM63.0382 89.2608L63.0382 89.2607L53.5513 86.0985L53.5513 86.0985L63.0382 89.2608ZM59.387 99.4401C60.2228 96.255 61.5076 93.065 62.9288 89.5572L53.6606 85.8021C52.2841 89.1997 50.7414 92.9884 49.7145 96.902L59.387 99.4401ZM59.3622 99.5348L59.3869 99.4404L49.7146 96.9017L49.6898 96.9961L59.3622 99.5348ZM58.6476 103.435C58.6476 102.355 58.8925 101.324 59.3621 99.5349L49.6898 96.9959C49.2624 98.624 48.6476 100.869 48.6476 103.435H58.6476ZM58.5041 102.493C58.5827 102.767 58.6156 102.991 58.6307 103.135C58.646 103.28 58.6476 103.387 58.6476 103.435H48.6476C48.6476 103.789 48.668 104.471 48.8922 105.252L58.5041 102.493ZM56.2171 99.8118C57.9054 100.623 58.3933 102.107 58.5041 102.493L48.8922 105.252C49.0744 105.887 49.739 107.793 51.8857 108.825L56.2171 99.8118ZM52.3608 99.8453C52.8438 99.5983 54.4085 98.9427 56.217 99.8117L51.8858 108.825C54.1772 109.926 56.1924 109.117 56.9129 108.749L52.3608 99.8453ZM51.4157 100.521C51.4654 100.471 51.5646 100.376 51.7066 100.264C51.847 100.153 52.0654 99.9963 52.3604 99.8455L56.9133 108.749C57.7109 108.341 58.2467 107.832 58.4835 107.595L51.4157 100.521ZM51.8174 99.8281C51.6307 100.14 51.4817 100.377 51.3668 100.545C51.3109 100.627 51.28 100.667 51.2725 100.677C51.2592 100.694 51.3084 100.628 51.4157 100.521L58.4835 107.595C59.3274 106.752 60.0456 105.552 60.3976 104.964L51.8174 99.8281ZM52.8194 98.085C52.4561 98.7283 52.1207 99.3216 51.8174 99.8281L60.3975 104.964C60.7782 104.329 61.1786 103.619 61.5267 103.003L52.8194 98.085ZM52.8064 98.1082L52.8062 98.1085L61.5399 102.979L61.54 102.979L52.8064 98.1082ZM53.084 97.6169C52.9961 97.7721 52.9071 97.9296 52.8196 98.0847L61.5268 103.002C61.6151 102.846 61.7004 102.695 61.7842 102.547L53.084 97.6169ZM54.4401 95.36C54.0007 96.007 53.4994 96.8839 53.0841 97.6169L61.7842 102.547C62.2453 101.733 62.5434 101.228 62.7126 100.978L54.4401 95.36ZM62.2562 83.4839C59.7685 87.4559 57.1409 91.3835 54.4401 95.36L62.7126 100.978C65.4318 96.9748 68.1429 92.9244 70.7312 88.7918L62.2562 83.4839ZM78.5757 64.4625C71.994 70.223 66.5049 76.7001 62.2562 83.4839L70.7312 88.7918C74.4485 82.8565 79.2955 77.1217 85.1617 71.9874L78.5757 64.4625ZM85.3123 59.6932C82.4886 61.1685 80.1411 63.0924 78.5757 64.4625L85.1617 71.9874C86.5358 70.7848 88.177 69.4791 89.9432 68.5563L85.3123 59.6932ZM95.7791 57.5711C91.7624 57.0145 88.1254 58.2233 85.3123 59.6932L89.9432 68.5563C91.7223 67.6267 93.2012 67.3094 94.4064 67.4765L95.7791 57.5711ZM107.287 69.3338C106.719 64.8268 103.46 58.6355 95.7791 57.5711L94.4064 67.4765C95.51 67.6294 96.1139 68.0775 96.5129 68.5571C96.9814 69.1202 97.2768 69.8819 97.3655 70.585L107.287 69.3338ZM105.905 79.9309C106.971 76.8543 107.793 73.3456 107.287 69.3338L97.3655 70.585C97.6013 72.4547 97.2723 74.3003 96.4557 76.6577L105.905 79.9309ZM104.277 84.1356C104.817 82.813 105.402 81.3836 105.905 79.9309L96.4557 76.6577C96.0565 77.8099 95.578 78.9856 95.0185 80.3559L104.277 84.1356ZM104.202 84.3177L104.277 84.1354L95.0184 80.3562L94.944 80.5384L104.202 84.3177ZM102.622 88.4272C103.089 87.0596 103.625 85.7327 104.202 84.3174L94.9439 80.5387C94.373 81.9375 93.7308 83.518 93.1572 85.2005L102.622 88.4272ZM101.237 96.945C101.109 93.8291 101.707 91.1132 102.622 88.4272L93.1572 85.2005C91.9895 88.6256 91.0509 92.6205 91.2456 97.3559L101.237 96.945ZM104.602 108.596C102.232 103.842 101.365 100.062 101.237 96.945L91.2456 97.3559C91.4403 102.09 92.7533 107.243 95.6521 113.057L104.602 108.596ZM98.5666 106.576C100.791 105.468 103.493 106.372 104.602 108.596L95.6521 113.058C97.0073 115.776 100.31 116.881 103.028 115.526L98.5666 106.576ZM96.547 112.611C95.4382 110.387 96.3424 107.685 98.5666 106.576L103.028 115.526C105.747 114.171 106.852 110.868 105.497 108.15L96.547 112.611ZM92.2448 97.3148C92.4328 101.887 93.7011 106.903 96.547 112.611L105.497 108.15C103.18 103.502 102.358 99.8595 102.236 96.9039L92.2448 97.3148ZM94.1037 85.5231C92.9613 88.8743 92.0567 92.7414 92.2448 97.3148L102.236 96.9039C102.115 93.95 102.678 91.3619 103.569 88.7499L94.1037 85.5231ZM95.8697 80.9166C95.2983 82.3168 94.6665 83.8721 94.1037 85.5232L103.569 88.7499C104.024 87.4138 104.55 86.1123 105.128 84.6952L95.8697 80.9166ZM95.9477 80.7255L95.8699 80.9161L105.128 84.6957L105.206 84.505L95.9477 80.7255ZM96.0079 80.5845L96.0078 80.5846L105.146 84.646L105.146 84.6459L96.0079 80.5845ZM97.4006 76.985C96.9922 78.1639 96.504 79.363 95.9478 80.7253L105.206 84.505C105.743 83.1887 106.337 81.737 106.85 80.2582L97.4006 76.985ZM98.3576 70.4599C98.6204 72.5439 98.2421 74.5558 97.4006 76.985L106.85 80.2582C107.94 77.1096 108.812 73.4346 108.279 69.2087L98.3576 70.4599ZM94.5437 66.4859C95.9275 66.6777 96.7362 67.2597 97.2767 67.9116C97.8878 68.6488 98.2506 69.6111 98.3576 70.4599L108.279 69.2087C107.675 64.4207 104.193 57.7276 95.9164 56.5806L94.5437 66.4859ZM89.4801 67.67C91.3631 66.6861 93.0577 66.28 94.5437 66.4859L95.9164 56.5806C91.618 55.9849 87.7651 57.2833 84.8492 58.8069L89.4801 67.67ZM84.5031 71.2349C85.896 70.0158 87.608 68.6481 89.4801 67.67L84.8492 58.8069C81.92 60.3374 79.5019 62.3229 77.9171 63.71L84.5031 71.2349ZM69.8837 88.261C73.6542 82.2408 78.5653 76.4319 84.5031 71.2349L77.9171 63.71C71.2639 69.5331 65.7105 76.0844 61.4087 82.9531L69.8837 88.261ZM61.8854 100.417C64.6027 96.4156 67.3055 92.3776 69.8837 88.261L61.4087 82.9531C58.9311 86.909 56.3118 90.8243 53.6129 94.7982L61.8854 100.417ZM60.9142 102.054C61.3703 101.249 61.689 100.706 61.8854 100.417L53.6129 94.7982C53.1467 95.4847 52.6254 96.3979 52.214 97.1239L60.9142 102.054ZM60.6566 102.51C60.7443 102.354 60.8297 102.203 60.9141 102.054L52.2141 97.1238C52.1255 97.2801 52.0365 97.4376 51.9493 97.5921L60.6566 102.51ZM60.6513 102.519L60.6549 102.513L51.9509 97.5892L51.9473 97.5956L60.6513 102.519ZM59.5395 104.451C59.9131 103.827 60.3054 103.131 60.6529 102.516L51.9457 97.5984C51.5828 98.2411 51.2555 98.8198 50.9594 99.3145L59.5395 104.451ZM50.671 97.1966C50.3853 98.2853 50.0319 99.6102 49.8297 101L59.7255 102.44C59.8326 101.704 60.0297 100.931 60.3435 99.7348L50.671 97.1966ZM50.6817 97.1557L50.671 97.1966L60.3435 99.7348L60.3543 99.694L50.6817 97.1557ZM54.5838 86.1869C53.2067 89.5867 51.6911 93.3093 50.6817 97.1558L60.3543 99.6939C61.1723 96.5765 62.4293 93.4542 63.8523 89.9413L54.5838 86.1869ZM55.2704 84.4866C55.0441 85.0507 54.8156 85.6147 54.5838 86.1869L63.8523 89.9412C64.0831 89.3716 64.3178 88.792 64.5514 88.2098L55.2704 84.4866ZM58.7659 73.2679C58.2089 76.8516 56.8827 80.4675 55.2704 84.4866L64.5514 88.2098C66.1696 84.176 67.898 79.6244 68.6473 74.8037L58.7659 73.2679ZM58.4633 65.3072C59.2622 67.5264 59.2151 70.378 58.7659 73.2679L68.6473 74.8037C69.1811 71.3689 69.525 66.5114 67.8722 61.9202L58.4633 65.3072ZM54.5505 52.2721C54.5946 52.3589 54.6321 52.442 54.6639 52.5212L63.9433 48.794C63.8004 48.4381 63.6411 48.0874 63.4657 47.7423L54.5505 52.2721ZM43.7059 46.4848C51.2613 48.4043 53.8439 50.8815 54.5505 52.2721L63.4657 47.7423C60.7445 42.3866 54.5212 38.9149 46.1683 36.7927L43.7059 46.4848ZM29.6754 39.0137C32.7124 42.3174 37.4664 44.8996 43.7059 46.4848L46.1683 36.7927C41.1348 35.5139 38.3559 33.6804 37.0373 32.246L29.6754 39.0137ZM26.4691 27.1922C25.1893 31.3703 26.5911 35.6586 29.6754 39.0137L37.0373 32.246C36.3928 31.5449 36.1463 31.0006 36.0565 30.6838C35.9717 30.385 36.0016 30.2157 36.0306 30.1212L26.4691 27.1922ZM35.4421 18.9395C31.2052 20.2643 27.7241 23.0953 26.4691 27.1922L36.0306 30.1212C36.0731 29.9824 36.4426 29.1041 38.4263 28.4839L35.4421 18.9395ZM50.8502 19.2898C44.9655 17.6587 39.69 17.6114 35.4421 18.9395L38.4263 28.4839C40.396 27.868 43.6468 27.6702 48.1792 28.9264L50.8502 19.2898ZM45.3118 22.4243C45.9756 20.0293 48.4553 18.6259 50.8502 19.2898L48.1792 28.9264C51.1064 29.7378 54.1371 28.0225 54.9485 25.0953L45.3118 22.4243ZM48.4463 27.9628C46.0513 27.299 44.648 24.8193 45.3118 22.4243L54.9485 25.0953C55.7598 22.1681 54.0446 19.1374 51.1173 18.3261L48.4463 27.9628ZM57.5771 52.8383C56.7925 52.5329 55.9699 52.2711 55.1098 52.0522L52.6431 61.7432C53.1334 61.868 53.567 62.0082 53.9502 62.1574L57.5771 52.8383ZM55.1098 52.0522C48.5399 50.38 42.6272 53.0252 38.3565 55.9367L43.9895 64.1992C47.3043 61.9394 50.1656 61.1126 52.6431 61.7432L55.1098 52.0522ZM38.3565 55.9367C34.5467 58.5341 31.4192 61.7681 29.4981 63.7425L36.6653 70.7162C38.6472 68.6793 41.1257 66.1517 43.9895 64.1992L38.3565 55.9367ZM29.4962 63.7445L29.4957 63.745L36.6667 70.7148L36.6672 70.7142L29.4962 63.7445ZM32.0036 72.3095C37.0296 73.4846 42.3881 72.8343 47.0823 71.2383L43.8635 61.7705C40.454 62.9297 37.043 63.2181 34.2804 62.5721L32.0036 72.3095ZM47.0823 71.2383C52.1668 69.5097 56.9658 66.5034 60.1177 62.7312L52.4439 56.3193C50.7036 58.402 47.5942 60.5022 43.8635 61.7705L47.0823 71.2383ZM29.4975 63.7431C26.7633 66.5533 28.0545 71.3861 32.0036 72.3095L34.2804 62.5721C38.0381 63.4507 39.2619 68.0474 36.6648 70.7167L29.4975 63.7431ZM53.8452 53.4918C53.8547 52.9841 54.037 52.3906 54.4282 51.8844C54.7834 51.4247 55.161 51.2269 55.3273 51.1574C55.4923 51.0884 55.5593 51.0959 55.5066 51.0984C55.4613 51.1005 55.4009 51.0944 55.3565 51.0831L52.8898 60.7741C54.8038 61.2613 57.1063 61.2525 59.1846 60.3835C61.457 59.4335 63.7767 57.2084 63.8434 53.6807L53.8452 53.4918ZM67.8722 61.9202C67.2517 60.1963 66.7418 58.1956 66.126 55.847C65.5437 53.6261 64.8636 51.0852 63.9433 48.794L54.6639 52.5212C55.3159 54.1444 55.8535 56.097 56.453 58.3833C57.019 60.5419 57.6551 63.0621 58.4633 65.3072L67.8722 61.9202ZM53.9502 62.1574C51.5681 61.2303 50.8452 58.2326 52.4439 56.3193L60.1177 62.7312C62.8637 59.4448 61.6267 54.4143 57.5771 52.8383L53.9502 62.1574ZM50.9594 99.3145C52.0403 97.5089 54.3349 96.5197 56.5636 97.2861C58.8249 98.0637 60.0352 100.311 59.7255 102.44L49.8297 101C49.4756 103.433 50.8429 105.894 53.3118 106.743C55.7479 107.58 58.3006 106.52 59.5395 104.451L50.9594 99.3145ZM60.885 63.3724C60.48 63.8572 59.8701 64.2565 59.0743 64.3862C58.2011 64.5284 57.047 64.3261 56.1393 63.475L62.9792 56.1802C59.4731 52.8927 55.0412 54.7704 53.2112 56.9605L60.885 63.3724Z" fill="url(#paint1_linear)"/>
<defs>
<linearGradient id="paint0_linear" x1="90.5" y1="-9.5" x2="67" y2="149.5" gradientUnits="userSpaceOnUse">
<stop stop-color="#CE004A"/>
<stop offset="1" stop-color="white"/>
</linearGradient>
<linearGradient id="paint1_linear" x1="47.813" y1="1.70337" x2="159.313" y2="172.703" gradientUnits="userSpaceOnUse">
<stop/>
<stop offset="1"/>
</linearGradient>
</defs>
</svg>
