<svg width="844" height="723" viewBox="0 0 844 723" fill="none" xmlns="http://www.w3.org/2000/svg">
<path d="M594.132 340.181C572.094 431.801 555.468 483.91 539.647 516.199C531.751 532.314 524.083 543.433 516.085 552.041C508.165 560.565 499.847 566.71 490.461 572.839C472.078 578.723 449.413 576.807 425.117 567.679C400.709 558.509 374.847 542.128 350.412 519.456C301.582 474.15 258.66 403.918 244.502 316.664C244.603 172.419 353.088 75.3891 466.522 46.5555C494.354 42.0345 517.671 47.2055 536.676 60.0333C555.753 72.9105 570.705 93.6548 581.426 120.618C602.877 174.571 607.138 252.809 594.132 340.181Z" stroke="white" stroke-opacity="0.75" stroke-width="5"/>
<path d="M421.036 5.78947C429.598 7.48721 437.615 9.0715 445.109 10.5525C473.753 16.2133 494.76 20.3647 509.389 23.5729C518.628 25.599 525.235 27.2304 529.587 28.6097C531.339 29.1649 532.658 29.6583 533.607 30.0923C533.176 30.2624 532.659 30.4465 532.044 30.6431C528.953 31.632 524.223 32.6892 518.026 33.9611C515.659 34.4469 513.093 34.9611 510.346 35.5116C498.811 37.8228 484.086 40.7733 467.539 44.941C386.986 65.2304 261.513 114.816 243.586 263.171C196.744 188.603 207.48 118.727 245.889 70.1644C285.435 20.1641 354.44 -7.41571 421.036 5.78947ZM535.15 30.994C535.15 30.9943 535.147 30.9907 535.14 30.9832C535.147 30.9902 535.15 30.9938 535.15 30.994ZM535.201 29.2792C535.216 29.2636 535.226 29.2558 535.227 29.2558C535.228 29.2557 535.22 29.2635 535.201 29.2792Z" stroke="url(#paint0_linear)" stroke-width="5"/>
<path d="M238.508 266.848C136.379 114.327 204.279 478.199 254.758 352.738" stroke="white" stroke-opacity="0.75" stroke-width="5"/>
<path d="M305.073 440.493C305.072 463.232 303.877 489.177 302.772 513.167C302.603 516.824 302.437 520.435 302.277 523.983C302.151 524.329 302.021 524.648 301.886 524.94C301.379 526.039 300.879 526.604 300.461 526.904C300.075 527.181 299.597 527.349 298.875 527.349C298.685 527.349 298.007 527.205 296.835 526.054C295.716 524.956 294.43 523.213 293.05 520.769C290.298 515.895 287.389 508.629 284.736 499.283C279.439 480.619 275.259 454.01 275.259 422.486C275.259 415.999 275.247 409.545 275.235 403.185C275.188 378.394 275.144 355.033 275.834 336.686C276.268 325.146 276.989 315.718 278.154 309.216C278.741 305.94 279.41 303.586 280.12 302.11C280.569 301.175 280.885 300.877 281 300.795C285.657 300.859 289.89 304.819 293.513 313.708C297.082 322.468 299.591 334.963 301.325 349.653C304.517 376.694 305.015 410.498 305.073 440.493ZM306.585 540.396C306.777 535.435 307.001 530.252 307.241 524.911C308.2 521.909 308.8 517.933 309.204 512.935C310.109 501.771 310.099 484.418 310.084 458.756C310.082 455.328 310.08 451.751 310.08 448.021C310.08 445.534 310.078 443.011 310.073 440.458C310.073 433.977 310.061 427.529 310.049 421.176C310.002 396.384 309.958 373.024 310.648 354.677C311.082 343.136 311.803 333.709 312.968 327.206C313.554 323.931 314.224 321.577 314.933 320.101C315.384 319.164 315.7 318.867 315.814 318.785C323.476 318.837 329.451 323.995 334.124 333.907C338.818 343.863 341.847 357.971 343.761 374.315C347.075 402.614 346.975 436.863 346.89 466.21C346.877 470.722 346.864 475.119 346.864 479.36C346.864 510.677 338.842 538.616 329.679 558.703C325.097 568.75 320.257 576.773 316.044 582.242C313.932 584.983 312.025 587.02 310.436 588.346C309.266 589.322 308.461 589.748 307.999 589.92C307.806 589.556 307.567 588.942 307.33 587.99C306.757 585.693 306.365 582.188 306.149 577.575C305.719 568.398 306.004 555.439 306.585 540.396ZM315.862 318.757C315.862 318.758 315.857 318.761 315.846 318.765C315.856 318.759 315.862 318.757 315.862 318.757ZM281.048 300.767C281.048 300.767 281.043 300.77 281.032 300.774C281.043 300.768 281.048 300.766 281.048 300.767Z" stroke="white" stroke-opacity="0.75" stroke-width="5"/>
<path d="M305.073 440.493C305.072 463.232 303.877 489.177 302.772 513.167C302.603 516.824 302.437 520.435 302.277 523.983C302.151 524.329 302.021 524.648 301.886 524.94C301.379 526.039 300.879 526.604 300.461 526.904C300.075 527.181 299.597 527.349 298.875 527.349C298.685 527.349 298.007 527.205 296.835 526.054C295.716 524.956 294.43 523.213 293.05 520.769C290.298 515.895 287.389 508.629 284.736 499.283C279.439 480.619 275.259 454.01 275.259 422.486C275.259 415.999 275.247 409.545 275.235 403.185C275.188 378.394 275.144 355.033 275.834 336.686C276.268 325.146 276.989 315.718 278.154 309.216C278.741 305.94 279.41 303.586 280.12 302.11C280.569 301.175 280.885 300.877 281 300.795C285.657 300.859 289.89 304.819 293.513 313.708C297.082 322.468 299.591 334.963 301.325 349.653C304.517 376.694 305.015 410.498 305.073 440.493ZM306.585 540.396C306.777 535.435 307.001 530.252 307.241 524.911C308.2 521.909 308.8 517.933 309.204 512.935C310.109 501.771 310.099 484.418 310.084 458.756C310.082 455.328 310.08 451.751 310.08 448.021C310.08 445.534 310.078 443.011 310.073 440.458C310.073 433.977 310.061 427.529 310.049 421.176C310.002 396.384 309.958 373.024 310.648 354.677C311.082 343.136 311.803 333.709 312.968 327.206C313.554 323.931 314.224 321.577 314.933 320.101C315.384 319.164 315.7 318.867 315.814 318.785C323.476 318.837 329.451 323.995 334.124 333.907C338.818 343.863 341.847 357.971 343.761 374.315C347.075 402.614 346.975 436.863 346.89 466.21C346.877 470.722 346.864 475.119 346.864 479.36C346.864 510.677 338.842 538.616 329.679 558.703C325.097 568.75 320.257 576.773 316.044 582.242C313.932 584.983 312.025 587.02 310.436 588.346C309.266 589.322 308.461 589.748 307.999 589.92C307.806 589.556 307.567 588.942 307.33 587.99C306.757 585.693 306.365 582.188 306.149 577.575C305.719 568.398 306.004 555.439 306.585 540.396ZM315.862 318.757C315.862 318.758 315.857 318.761 315.846 318.765C315.856 318.759 315.862 318.757 315.862 318.757ZM281.048 300.767C281.048 300.767 281.043 300.77 281.032 300.774C281.043 300.768 281.048 300.766 281.048 300.767Z" stroke="white" stroke-opacity="0.75" stroke-width="5"/>
<path d="M354.061 524.244L354.185 523.864V523.465C354.185 516.83 354.172 510.296 354.159 503.909C354.106 478.159 354.059 454.799 354.909 436.777C355.44 425.514 356.316 416.499 357.715 410.347C358.419 407.251 359.213 405.079 360.036 403.739C360.861 402.397 361.397 402.353 361.551 402.353C361.95 402.353 362.946 402.663 364.55 404.222C366.072 405.703 367.81 407.99 369.673 411.083C373.391 417.252 377.396 426.267 381.084 437.443C388.454 459.776 394.451 490.415 394.451 523.465C394.451 555.73 376.13 578.721 356.13 593.765C346.138 601.281 335.792 606.758 327.264 610.351C323.002 612.147 319.216 613.463 316.179 614.325C314.141 614.904 312.522 615.255 311.357 615.428C309.331 611.163 309.316 607.788 310.547 604.268C312.018 600.061 315.277 595.571 319.964 589.223L320.159 588.959C329.425 576.41 342.989 558.042 354.061 524.244Z" stroke="white" stroke-opacity="0.75" stroke-width="5"/>
<path d="M486.342 578.703L486.73 578.607L487.068 578.396C515.694 560.502 529.206 542.815 536.311 530.707C538.079 527.692 539.441 525.041 540.528 522.854C540.829 522.246 541.105 521.685 541.359 521.169C541.704 520.465 542.01 519.843 542.288 519.294C542.072 520.348 541.664 521.705 541.04 523.366C539.587 527.232 537.101 532.387 533.721 538.513C526.973 550.746 516.807 566.593 504.674 583.274C480.349 616.715 448.415 653.093 420.581 670.492C413.714 674.785 408.544 676.261 404.708 676.015C401.038 675.779 398.224 673.942 395.982 670.599C393.677 667.162 392.045 662.205 390.996 656.074C389.953 649.979 389.519 642.925 389.477 635.445C389.397 621.204 390.735 605.683 391.854 592.703C391.912 592.039 391.968 591.382 392.024 590.732C392.595 584.085 393.087 578.15 393.246 573.575C393.325 571.29 393.324 569.274 393.197 567.643C393.126 566.736 393.007 565.771 392.761 564.891C393.922 563.061 394.948 562.208 395.808 561.827C396.747 561.411 397.907 561.374 399.656 561.953C401.457 562.549 403.575 563.694 406.25 565.289C407.057 565.77 407.914 566.291 408.816 566.84C410.815 568.056 413.038 569.409 415.438 570.761C429.668 578.773 451.2 587.381 486.342 578.703ZM543.742 516.841C543.742 516.842 543.736 516.848 543.723 516.859C543.736 516.846 543.742 516.841 543.742 516.841Z" stroke="white" stroke-opacity="0.75" stroke-width="5"/>
<path d="M536.03 443.791L537.477 445.578L539.379 444.285C542.987 441.832 545.693 440.244 547.727 439.447C549.828 438.624 550.545 438.901 550.771 439.045C551.109 439.262 551.769 440.04 552.245 442.612C552.7 445.063 552.884 448.538 552.884 453.244C552.884 462.489 551.289 473.786 546.608 482.674C542.002 491.42 534.491 497.752 522.304 497.752C509.545 497.752 494.462 492.932 482.571 485.761C476.64 482.184 471.613 478.087 468.097 473.83C464.566 469.555 462.708 465.308 462.708 461.369C462.708 459.799 463.405 458.101 465.019 456.271C466.642 454.433 469.071 452.607 472.189 450.869C478.419 447.396 486.958 444.518 495.921 442.575C504.871 440.635 514.074 439.663 521.579 439.908C525.335 440.031 528.58 440.456 531.121 441.172C533.719 441.905 535.273 442.855 536.03 443.791Z" stroke="#3742FA" stroke-width="5"/>
<path d="M353 235.058C381.252 266.059 410.039 272.791 479.514 269.878C451.557 313.181 406.554 290.674 353 235.058Z" stroke="url(#paint1_linear)" stroke-width="5"/>
<line x1="541.815" y1="276.072" x2="594.045" y2="271.43" stroke="url(#paint2_linear)" stroke-width="5"/>
<path d="M542.156 277.995C542.156 277.995 549.58 294.812 566.41 298.874C583.24 302.937 580.459 286.12 580.459 286.12" stroke="url(#paint3_linear)" stroke-width="5"/>
<path d="M495.276 236.179C426.056 204.471 393.232 201.183 344.388 218.768" stroke="url(#paint4_linear)" stroke-width="5"/>
<path d="M513.02 217.627C424.514 179.844 387.874 179.372 347.043 217.627" stroke="url(#paint5_linear)" stroke-width="5"/>
<line x1="549.13" y1="219.411" x2="597.878" y2="197.359" stroke="url(#paint6_linear)" stroke-width="5"/>
<path d="M554.608 235.071C575.791 222.341 586.106 219.519 603.357 217.661" stroke="url(#paint7_linear)" stroke-width="5"/>
<path d="M532.13 255.56C540.875 301.196 659.844 469.494 482.221 383.234" stroke="white" stroke-opacity="0.75" stroke-width="5"/>
<path d="M193.833 576.276C210.952 535.675 225.724 520.235 262.313 507.216C258.637 551.029 264.409 572.31 301.776 598.909C317.84 667.526 329.205 708.676 301.776 727.871L435.254 728.698C468.033 624.052 528.688 582.66 554.223 497.35C577.396 419.93 582.607 503.005 600.108 519.557C604.178 517.286 617.756 513.483 651.72 507.216C749.217 489.225 843.812 654.622 843.812 654.622V731.226L435.254 728.698L301.776 727.871L0 726.003C71.1944 693.485 104.041 675.108 139.281 641.854C146.176 615.984 159.13 601.641 193.833 576.276Z" fill="url(#paint8_linear)"/>
<path d="M364.223 259.089L364.229 258.96V258.831C364.229 245.563 374.782 233.229 390.924 223.86C406.835 214.626 426.579 209.279 441.637 209.279C457.497 209.279 477.167 210.697 492.702 215.865C508.42 221.094 517.885 229.342 517.885 242.001C517.885 272.373 496.769 332.792 428.834 358.618C418.729 362.46 409.509 364.01 401.501 362.996C393.63 361.999 386.682 358.503 380.9 351.718C369.026 337.781 361.621 309.389 364.223 259.089Z" stroke="url(#paint9_radial)" stroke-width="10"/>
<path d="M664.342 295.231L664.417 294.94L664.526 294.661C673.251 272.328 669.362 257.896 661.672 248.199C653.641 238.071 640.746 232.183 629.911 228.781C619.651 225.56 604.105 224.633 590.338 227.23C576.171 229.901 566.24 235.786 563.636 244.079C560.403 254.379 558.24 274.242 562.171 295.656C566.087 316.982 575.944 339.326 596.202 355.304C602.117 359.968 608.068 362.556 613.79 363.094C619.436 363.625 625.251 362.201 631.101 358.157C643.068 349.886 655.221 330.571 664.342 295.231Z" stroke="url(#paint10_radial)" stroke-width="10"/>
<line x1="488.031" y1="205.112" x2="604.099" y2="217.88" stroke="url(#paint11_radial)" stroke-width="10"/>
<line x1="522.598" y1="244.554" x2="562.061" y2="246.875" stroke="url(#paint12_radial)" stroke-width="10"/>
<line x1="595.382" y1="255.117" x2="676.629" y2="273.688" stroke="url(#paint13_radial)" stroke-width="10"/>
<line x1="259.69" y1="231.852" x2="359.508" y2="249.262" stroke="url(#paint14_radial)" stroke-width="10"/>
<defs>
<linearGradient id="paint0_linear" x1="373.738" y1="0" x2="373.738" y2="270.438" gradientUnits="userSpaceOnUse">
<stop stop-color="white" stop-opacity="0.61"/>
<stop offset="1" stop-color="white"/>
</linearGradient>
<linearGradient id="paint1_linear" x1="416.257" y1="252.468" x2="407.416" y2="284.591" gradientUnits="userSpaceOnUse">
<stop stop-color="white" stop-opacity="0.61"/>
<stop offset="1" stop-color="white"/>
</linearGradient>
<linearGradient id="paint2_linear" x1="568.151" y1="276.241" x2="568.24" y2="277.237" gradientUnits="userSpaceOnUse">
<stop stop-color="white" stop-opacity="0.61"/>
<stop offset="1" stop-color="white"/>
</linearGradient>
<linearGradient id="paint3_linear" x1="561.838" y1="282.17" x2="558.642" y2="297.238" gradientUnits="userSpaceOnUse">
<stop stop-color="white" stop-opacity="0.61"/>
<stop offset="1" stop-color="white"/>
</linearGradient>
<linearGradient id="paint4_linear" x1="419.832" y1="227.473" x2="421.837" y2="210.101" gradientUnits="userSpaceOnUse">
<stop stop-color="white" stop-opacity="0.61"/>
<stop offset="1" stop-color="white"/>
</linearGradient>
<linearGradient id="paint5_linear" x1="430.031" y1="217.627" x2="430.031" y2="189.113" gradientUnits="userSpaceOnUse">
<stop stop-color="white" stop-opacity="0.61"/>
<stop offset="1" stop-color="white"/>
</linearGradient>
<linearGradient id="paint6_linear" x1="574.534" y1="210.663" x2="574.947" y2="211.574" gradientUnits="userSpaceOnUse">
<stop stop-color="white" stop-opacity="0.61"/>
<stop offset="1" stop-color="white"/>
</linearGradient>
<linearGradient id="paint7_linear" x1="577.856" y1="223.211" x2="578.982" y2="226.366" gradientUnits="userSpaceOnUse">
<stop stop-color="white" stop-opacity="0.61"/>
<stop offset="1" stop-color="white"/>
</linearGradient>
<linearGradient id="paint8_linear" x1="421.906" y1="464.857" x2="421.906" y2="731.226" gradientUnits="userSpaceOnUse">
<stop stop-color="white" stop-opacity="0.61"/>
<stop offset="1" stop-color="white"/>
</linearGradient>
<radialGradient id="paint9_radial" cx="0" cy="0" r="1" gradientUnits="userSpaceOnUse" gradientTransform="translate(440.794 286.289) rotate(90) scale(82.0098 82.0914)">
<stop stop-color="white" stop-opacity="0"/>
<stop offset="1" stop-color="white"/>
</radialGradient>
<radialGradient id="paint10_radial" cx="0" cy="0" r="1" gradientUnits="userSpaceOnUse" gradientTransform="translate(607.267 291.658) rotate(107.43) scale(71.7725 60.8792)">
<stop stop-color="white" stop-opacity="0"/>
<stop offset="1" stop-color="white"/>
</radialGradient>
<radialGradient id="paint11_radial" cx="0" cy="0" r="1" gradientUnits="userSpaceOnUse" gradientTransform="translate(545.464 216.963) rotate(96.2773) scale(0.5 58.3839)">
<stop stop-color="white" stop-opacity="0"/>
<stop offset="1" stop-color="white"/>
</radialGradient>
<radialGradient id="paint12_radial" cx="0" cy="0" r="1" gradientUnits="userSpaceOnUse" gradientTransform="translate(542.007 251.205) rotate(93.3665) scale(0.5 19.7656)">
<stop stop-color="white" stop-opacity="0"/>
<stop offset="1" stop-color="white"/>
</radialGradient>
<radialGradient id="paint13_radial" cx="0" cy="0" r="1" gradientUnits="userSpaceOnUse" gradientTransform="translate(634.78 269.764) rotate(102.875) scale(0.5 41.6714)">
<stop stop-color="white" stop-opacity="0"/>
<stop offset="1" stop-color="white"/>
</radialGradient>
<radialGradient id="paint14_radial" cx="0" cy="0" r="1" gradientUnits="userSpaceOnUse" gradientTransform="translate(308.654 245.976) rotate(99.8939) scale(0.5 50.6626)">
<stop stop-color="white" stop-opacity="0"/>
<stop offset="1" stop-color="white"/>
</radialGradient>
</defs>
</svg>
